<svg  version="1.1" id="Ebene_1" xmlns:x="&ns_extend;" xmlns:i="&ns_ai;" xmlns:graph="&ns_graphs;"
	 xmlns="&ns_svg;" xmlns:xlink="&ns_xlink;" width="349.272" height="276.983" viewBox="0 0 349.272 276.983"
	 overflow="visible" enable-background="new 0 0 349.272 276.983" xml:space="preserve">
		<g>
			<path  fill="#E85917" d="M272.093,132.691c0-3.399-1.224-4.828-3.399-4.828
				c-4.761,0-7.072,8.093-7.072,14.758C268.013,141.599,272.093,137.792,272.093,132.691 M261.689,145.271
				c0.68,7.209,3.943,8.841,7.819,8.841c2.924,0,5.645-0.885,7.344-3.332c0.068,0.611,0.137,1.224,0.137,1.7
				c0,4.079-4.557,6.8-9.588,6.8c-6.12,0-12.988-4.216-12.988-15.708c0-7.616,3.196-19.041,12.988-19.041
				c4.487,0,9.044,1.633,9.044,8.841C276.445,139.696,270.869,144.251,261.689,145.271 M240.065,130.04
				c-0.544,5.032-2.584,9.519-3.944,14.417c0.815,0.543,1.496,1.495,1.496,2.991c0,1.699-1.088,2.651-2.176,2.651
				c-0.681,0-1.292-0.271-1.836-0.952c0.68,3.196,2.516,5.032,5.508,5.032c2.855,0,4.759-1.428,4.759-4.76
				C243.872,143.843,242.581,141.873,240.065,130.04 M258.085,146.7c-2.584,3.603-5.508,5.847-8.092,7.683
				c-2.04,3.537-6.528,4.897-9.453,4.897c-7.956,0-10.131-5.646-10.131-10.065c0-2.379,1.088-4.215,2.448-4.963
				c2.38-6.732,5.031-13.463,5.712-20.127l6.867-1.361c4.284,17.274,5.576,20.198,5.646,27.132c1.495-1.021,2.923-2.177,4.146-3.195
				H258.085z M223.746,131.739c0-2.108-1.361-3.604-3.741-3.604c-4.896,0-6.392,7.956-6.392,14.416
				c0,9.521,3.604,11.562,8.023,11.562c4.761,0,8.025-2.38,10.336-7.412h2.313c-2.177,6.664-8.229,12.58-14.894,12.58
				c-6.256,0-12.987-4.08-12.987-15.845c0-7.548,2.312-18.904,12.58-18.904c5.712,0,8.771,2.856,8.771,8.16
				c0,2.244-0.883,4.013-2.651,4.013c-1.089,0-1.904-0.544-2.517-1.429C223.337,134.664,223.746,133.032,223.746,131.739
				 M199.265,124.872v23.12c0,1.768,0.137,6.12,3.061,6.12c2.176,0,3.877-2.517,4.896-7.412h2.517
				c-2.04,11.354-6.46,12.58-9.452,12.58c-4.148,0-5.916-3.062-6.596-6.394c-1.7,4.421-4.761,6.394-7.82,6.394
				c-5.304,0-9.588-2.788-9.588-10.54v-23.868h6.8v23.12c0,4.42,1.7,6.12,4.08,6.12c2.584,0,5.304-2.721,5.304-7.412v-21.828
				H199.265z M168.461,111.271v36.721c0,1.768,0.136,6.12,3.061,6.12c2.177,0,3.877-2.517,4.896-7.412h2.516
				c-2.04,11.354-6.46,12.58-9.45,12.58c-6.258,0-7.82-5.44-7.82-9.86v-37.196L168.461,111.271z M153.501,132.691
				c0-3.399-1.223-4.828-3.399-4.828c-4.761,0-7.072,8.093-7.072,14.758C149.421,141.599,153.501,137.792,153.501,132.691
				 M143.098,145.271c0.68,7.209,3.944,8.841,7.819,8.841c4.285,0,8.365-2.108,10.745-7.412h2.175
				c-2.311,6.664-8.771,12.58-15.708,12.58c-6.255,0-12.308-4.08-12.308-15.708c0-7.616,3.196-19.041,12.987-19.041
				c4.489,0,9.045,1.633,9.045,8.841C157.854,139.696,152.278,144.251,143.098,145.271 M109.303,114.263v39.305
				c1.7,1.292,3.332,1.768,4.761,1.768c7.004,0,9.588-11.492,9.588-21.353c0-16.796-4.557-23.664-16.389-23.664
				c-8.228,0-15.368,5.236-15.368,14.076c0,5.236,2.651,7.004,3.74,7.752c-5.509,0-8.908-2.311-8.908-8.296
				c0-8.432,9.248-15.98,21.488-15.98c17.34,0,23.528,12.852,23.528,26.045c0,12.851-5.508,25.839-13.057,25.839
				c-2.72,0-5.779-1.224-9.384-3.943v3.061h-7.345v-43.59L109.303,114.263z"/>
			<path  fill="#F09469" d="M146.709,20.512c-2.01,0-13.555,3.917-16.758,5.785l1.305,0.027
				c-0.173,0.237-0.091,0.34,0.192,0.34c1.497,0,8.601-2.904,13.128-4.471C146.952,20.988,147.41,20.512,146.709,20.512"/>
			<path  fill="#F09469" d="M149.292,33.254c-3.438,0.874-6.372,2.539-6.048,2.925
				c1.506-0.657,3.894-1.357,5.636-1.73l-1.55,0.327c-0.133,0.011-0.24,0.017-0.326,0.017
				C145.861,34.793,148.714,33.782,149.292,33.254 M149.085,34.406c-0.067,0.014-0.136,0.029-0.205,0.043L149.085,34.406z"/>
			<path  fill="#F09469" d="M85.725,79.973c-4.235,5.052-7.903,9.438-9.332,9.438
				c-0.24,0-0.418-0.125-0.522-0.392c-11.07,19.133-10.485,39.852-8.812,64.447c0.234,5.851,3.573,17.776,4.905,17.947
				c1.737-0.226-4.229-16.57-4.041-27.125c2.286,11.176,4.923,30.346,13.068,43.846c-1.233-3.346-2.269-6.74-3.159-10.151
				c5.769,10.756,12.312,25.956,22.104,36.01c-1.188-0.872-2.43-1.692-3.563-2.638c5.373,6.355,11.961,13.914,14.778,14.085
				c-4.284-3.663-5.437-5.354-9.559-8.944c-0.063-0.186-0.031-0.264,0.072-0.264c0.544,0,3.055,2.199,3.744,2.449
				c5.346,5.049,13.652,10.494,18.198,14.175c4.354,2.339,16.459,7.784,18.783,7.784c0.603,0,0.55-0.364-0.46-1.241
				c11.312,4.821,25.793,7.674,40.351,7.674c11.099,0,22.243-1.659,32.054-5.368c0.181,0.038,0.388,0.057,0.618,0.057
				c2.866,0,9.322-2.858,11.938-3.551c-0.434,0.396-0.393,0.549-0.049,0.549c0.599,0,2.104-0.461,3.604-0.918
				c1.501-0.459,2.994-0.918,3.559-0.918h0.032c27.503-15.453,51.993-44.666,57.222-76.959c0.504-9.547,1.422-15.795,1.27-24.695
				c-1.422,12.143-5.49,31.645-14.418,47.826c-0.885,2.764-1.067,3.863-0.8,3.863c0.521,0,2.739-4.152,4.813-8.3
				c2.003-4.022,3.871-8.045,3.929-8.3c0.063-0.053,0.111-0.079,0.147-0.079c0.448,0.001-0.879,3.798-1.906,6.831
				c-3.197,7.316-8.056,13.852-9.31,13.852c-0.027,0-0.054-0.004-0.077-0.01c-0.495,1.602-1.089,3.168-1.647,4.778
				c-9.379,14.005-23.301,26.299-41.283,35.451c4.591-3.718,6.76-4.94,14.347-9.638c1.957-2.543,2.579-3.539,2.267-3.539
				c-0.564,0-4.216,3.297-8.531,6.588c-4.31,3.301-9.276,6.591-12.485,6.591c-0.048,0-0.096,0-0.142-0.002
				c1.358,0.278-7.316,4.257-12.304,5.698c1.503-0.252,3.052-0.451,4.573-0.766c1.998-1.063,4.013-2.043,5.93-3.232
				c3.269-1.342,4.913-1.855,5.534-1.855c1.867,0-5.558,4.643-5.983,5.204c-18.171,6.967-20.286,4.006-41.48,5.913
				c-0.612,0.818,2.871,0.711,1.358,1.441c-4.022,0.276-4.883,0.811-7.937,0.811c-1.51,0-3.557-0.131-6.787-0.487
				c-9.72-2.421-18.306-1.567-29.088-6.858c-0.8-0.633-0.783-0.877-0.257-0.877c0.872,0,3.144,0.668,5.423,1.336
				c2.266,0.666,4.542,1.332,5.427,1.332c0.369,0,0.496-0.115,0.279-0.396c-1.684-0.666-3.321-1.478-4.941-2.26
				c-5.805-1.772-12.573-6.517-17.279-7.892l0.161-0.703c-7.839-3.25-18.494-12.303-22.616-14.994
				c-18.964-19.323-33.76-47.483-33.651-76.805c0.36-1.864,0.819-3.717,1.224-5.544c1.953-16.471,0.081-12.708,0.963-20.44
				c0.631-1.737,1.009-0.908,1.575-1.764c0.54-2.439,0.637-3.246,0.513-3.246c-0.123,0-0.457,0.779-0.791,1.555
				c-0.332,0.778-0.668,1.556-0.794,1.556c-0.063,0-0.072-0.188-0.008-0.656c2.115-8.542,6.049-19.324,9.847-23.688L85.725,79.973z
				 M70.173,111.14c0.846-2.141,1.611-4.275,2.592-6.336c-2.25,9.765-3.86,5.544-4.814,15.571
				c-0.675-4.384,0.621-5.581,2.771-14.599C70.479,107.558,70.353,109.367,70.173,111.14 M76.419,169.281
				c-1.313-3.249-3.015-7.3-3.429-11.997C73.962,160.675,74.763,164.167,76.419,169.281"/>
			<path  fill="#F09469" d="M63.711,121.22c-4.509,18.019,1.845,42.003,7.551,60.022
				c1.829,4.1,3.067,5.793,3.51,5.793c0.324,0,0.223-0.908-0.387-2.445c-2.466-5.193-4.806-12.627-6.983-18.783
				c-1.582-5.891-2.114-14.443-1.195-14.443c0.104,0,0.229,0.114,0.376,0.357C65.16,131.93,62.604,142.316,63.711,121.22"/>
			<path  fill="#FFFFFF" d="M72.765,104.804c-0.98,2.061-1.746,4.195-2.592,6.336
				c0.18-1.773,0.306-3.582,0.549-5.364c-2.15,9.018-3.446,10.215-2.771,14.599C68.904,110.348,70.515,114.569,72.765,104.804"/>
			<path  fill="#F09469" d="M76.896,185.939c-0.772,2.792,5.93,14.886,10.063,20.883
				c-0.063-0.34,0.313-0.26,0.025-0.74C87.633,204.948,79.569,191.953,76.896,185.939 M86.96,206.822
				c0.05,0.264,0.368,0.782,1.474,2.014C88.002,208.292,87.503,207.61,86.96,206.822"/>
			<path  fill="#FFFFFF" d="M72.99,157.284c0.414,4.697,2.115,8.748,3.429,11.997
				C74.763,164.167,73.962,160.675,72.99,157.284"/>
			<path  fill="#F09469" d="M83.31,191.998c-0.081,0-0.136,0.077-0.158,0.252
				c0.944,2.852,3.555,6.676,5.895,9.459c-0.612-1.135-1.278-2.233-1.836-3.395C86.25,196.979,83.954,191.998,83.31,191.998"/>
			<path  fill="#F09469" d="M113.283,230.183l1.07,2.699c1.818,1.287,3.78,2.359,5.652,3.547
				c-2.55-1.674-3.225-2.219-2.986-2.219c0.225,0,1.26,0.483,2.303,0.967c1.045,0.484,2.1,0.971,2.361,0.971
				c0.251,0-0.22-0.443-2.109-1.753C117.423,233.073,115.326,231.66,113.283,230.183"/>
			<path  fill="#F09469" d="M131.841,242.72c3.475,1.603,5.229,3.025,7.038,3.455l2.718,0.424
				C137.124,244.583,134.505,243.576,131.841,242.72"/>
			<path  fill="#F09469" d="M121.4,233.141c-0.593,0,5.092,4.272,6.634,4.522
				c-2.439-1.63-1.404-2.072-5.535-3.996C121.855,233.296,121.513,233.141,121.4,233.141"/>
			<path  fill="#F09469" d="M147.195,235.71c6.393,1.92,13.111,3.908,17.396,3.908
				c0.595,0,1.145-0.037,1.639-0.119C157.806,237.941,154.566,237.708,147.195,235.71"/>
			<path  fill="#F09469" d="M213.813,19.304c3.779,1.458,8.36,2.637,11.097,3.321l-1.818-1.161
				C220.004,20.646,216.927,19.88,213.813,19.304"/>
			<path  fill="#F09469" d="M180.933,14.086c-8.919,0-18.05,0.968-25.241,3.211
				c-1.253,0.8-1.372,1.069-0.687,1.069c0.704,0,2.254-0.282,4.295-0.565c2.05-0.285,4.604-0.571,7.284-0.571
				c0.19,0,0.381,0.002,0.573,0.004c6.602-0.69,13.464-1.328,20.271-1.328c4.106,0,8.192,0.232,12.191,0.824
				c2.187,0.046,4.365,0.198,6.57,0.306C199.775,15.194,190.475,14.086,180.933,14.086"/>
			<path  fill="#F09469" d="M182.373,17.427c-5.895,0-10.264,0.403-8.565,1.418
				c-10.251,1.098-11.889-0.018-19.61,1.269c-21.178,7.767-41.58,11.449-58.086,31.599c0.018-0.191-0.043-0.279-0.169-0.279
				c-1.203-0.001-8.4,8.042-10.982,11.691C78.271,70.656,69,91.022,70.977,91.022c0.178,0,0.446-0.165,0.816-0.518
				c3.816-6.103,8.64-20.25,16.848-28.054c2.555-2.43,3.739-3.431,4.002-3.431c0.449,0-1.786,2.911-4.487,6.599
				c-4.312,5.868-8.838,14.409-8.02,15.004c0.998-2.381,2.861-2.99,6.449-9.104c-2.016,3.55-2.463,4.726-2.126,4.726
				c0.329,0,1.413-1.132,2.508-2.264c1.097-1.133,2.2-2.266,2.57-2.266c0.256,0,0.16,0.542-0.536,2.004
				c12.195-14.922,11.808-13.005,20.151-18.036c8.208-7.677,4.959-6.795,6.921-9.62c9.44-8.074,19.242-10.513,28.854-14.572
				c-1.438,1.178-1.384,1.636-0.293,1.636c1.893,0,6.904-1.376,12.659-2.751c5.768-1.382,12.279-2.764,17.125-2.764h0.047
				c12.491-0.142,8.516-2.165,14.784-2.165c1.636,0,3.968,0.138,7.473,0.482c8.101,2.205-17.136,0.207-6.309,2.808
				c0.39-0.011,0.781-0.016,1.17-0.016c2.156,0,4.307,0.15,6.471,0.241c3.265-0.218,6.214-0.639,9.561-0.639
				c1.748,0,3.602,0.115,5.668,0.432c3.456,0.945,8.522,2.79,8.469,3.303c-1.97-0.543-3.216-0.792-3.836-0.792
				c-1.513,0,0.723,1.489,5.303,3.807c3.284,0.855,4.076,1.161,5.76,1.387c-2.613-2.018-3.352-2.844-2.83-2.844
				c1.809,0,18.76,9.912,25.276,14.48c12.375,8.551,13.913,12.825,15.633,16.272c1.432,3.771,3.239,7.002,10.936,19.072
				c-0.224-1.402-0.146-2.017,0.155-2.017c1.702,0,10.562,19.762,12.391,27.811c1.754,7.964,1.269,11.069,0.918,16.712
				c0.576,2.169,0.881,8.37,1.44,9.324c3.636-4.229,7.722-24.66-0.576-50.463c-0.353-0.6-0.655-1.119-0.737-1.119
				c-0.003,0-0.007,0.001-0.01,0.003c-5.616-12.375-16.102-28.989-28.746-37.512c4.733,5.04,4.77,5.265,11.475,13.608
				c-6.534-4.878-10.809-12.384-18.485-18.396c1.653,1.485,2.168,2.072,1.927,2.072c-0.615,0-6.104-3.794-10.126-6.319
				c-9.991-7.704-28.746-15.967-45.829-18.442C197.877,17.957,189.126,17.427,182.373,17.427"/>
			<path  fill="#595959" d="M337.599,0c-1.403,0-2.771,0.647-3.653,1.817
				c-17.289,22.797-26.65,50.616-26.65,79.227v50.103c0.01,6.579,5.338,11.907,11.916,11.907h2.688
				c-2.072,21.781-3.798,47.511-5.009,68.851c-0.621,10.943-1.106,20.726-1.439,28.231c-0.333,7.516-0.504,12.718-0.504,14.59
				c0,6.013,1.836,11.477,4.886,15.498c1.531,2.017,3.375,3.663,5.446,4.824c2.079,1.161,4.4,1.809,6.831,1.809
				c2.43,0,4.752-0.647,6.831-1.809c3.113-1.737,5.687-4.582,7.497-8.1c1.8-3.52,2.835-7.713,2.835-12.223
				c0-1.872-0.181-7.074-0.505-14.59c-0.998-22.496-3.389-65.473-6.598-98.645V4.581c0-1.972-1.259-3.708-3.113-4.339h-0.01
				C338.571,0.081,338.084,0,337.599,0 M319.211,140.057c-2.465,0-4.688-0.999-6.299-2.609c-1.62-1.612-2.61-3.834-2.61-6.301
				V81.044c0-27.954,9.145-55.143,26.036-77.418c0.298-0.396,0.775-0.621,1.261-0.621c0.162,0,0.333,0.027,0.495,0.081
				c0.648,0.216,1.08,0.819,1.08,1.495v137.043l0.009,0.071l1.484-0.146l-1.484,0.146c2.134,22.041,3.905,48.519,5.148,70.38
				c0.621,10.926,1.106,20.699,1.44,28.196c0.323,7.479,0.504,12.718,0.504,14.454c0,5.392-1.665,10.242-4.284,13.681
				c-1.306,1.728-2.844,3.087-4.519,4.022c-1.665,0.927-3.465,1.432-5.363,1.432c-1.891,0-3.691-0.505-5.364-1.432
				c-2.511-1.395-4.716-3.78-6.291-6.848c-1.576-3.07-2.511-6.814-2.511-10.855c0-1.736,0.171-6.975,0.504-14.454
				c0.999-22.474,3.392-65.492,6.588-98.576l0.162-1.639H319.211z"/>
			<path  fill="#595959" d="M52.083,12.401c-3.654,0-6.57,2.961-6.579,6.57
				c0,0.109,0.009,0.217,0.009,0.324l2.795,56.241h-0.005c0,1.171-0.468,2.214-1.232,2.989c-0.774,0.765-1.818,1.241-2.997,1.241
				c-1.17,0-2.214-0.476-2.988-1.241c-0.765-0.775-1.242-1.818-1.242-2.989v-0.017l-1.395-56.305
				c-0.09-3.789-3.195-6.813-6.976-6.813c-3.798,0-6.894,3.024-6.983,6.805l-1.404,56.313v0.017c0,1.171-0.468,2.214-1.233,2.989
				c-0.773,0.765-1.817,1.241-2.996,1.241c-1.171,0-2.215-0.476-2.988-1.241c-0.753-0.762-1.227-1.784-1.242-2.931l2.79-56.299
				c0.009-0.107,0.009-0.215,0.009-0.324c0-3.609-2.925-6.57-6.57-6.57c-3.474,0-6.345,2.701-6.561,6.165L0,88.83v0.045
				c0,11.42,6.084,21.419,15.183,26.927c4.653,2.817,7.443,7.857,7.443,13.212c0,0.568-0.036,1.134-0.099,1.701
				c-2.448,22.115-4.51,51.158-5.949,75.664c-0.72,12.258-1.287,23.381-1.684,31.932c-0.387,8.561-0.594,14.508-0.594,16.542
				c0,6.013,1.836,11.466,4.896,15.498c1.521,2.017,3.366,3.663,5.444,4.824c2.07,1.161,4.393,1.809,6.822,1.809
				s4.752-0.647,6.831-1.809c3.114-1.737,5.688-4.581,7.497-8.1c1.8-3.521,2.844-7.713,2.844-12.223
				c0-2.034-0.216-7.981-0.603-16.542c-1.161-25.659-3.951-74.438-7.632-107.595c-0.063-0.567-0.091-1.133-0.091-1.701
				c0-5.355,2.79-10.395,7.443-13.212c9.099-5.508,15.183-15.507,15.183-26.927V88.83l-4.293-70.255
				C58.428,15.102,55.557,12.401,52.083,12.401 M44.073,82.763c3.996,0,7.235-3.24,7.235-7.227V75.5L48.51,19.151v-0.18
				c0-0.981,0.396-1.863,1.044-2.52c0.648-0.648,1.53-1.053,2.529-1.053c1.881,0,3.447,1.477,3.564,3.357l4.292,70.199
				c-0.028,10.299-5.528,19.301-13.742,24.283c-5.554,3.367-8.883,9.378-8.883,15.777c0,0.676,0.035,1.36,0.107,2.034
				c2.439,22.004,4.5,51.032,5.94,75.51c0.72,12.24,1.287,23.355,1.674,31.888c0.387,8.531,0.594,14.517,0.594,16.406
				c0.009,5.392-1.665,10.241-4.284,13.681c-1.305,1.727-2.844,3.088-4.509,4.021c-1.674,0.928-3.474,1.433-5.373,1.433
				c-1.89,0-3.689-0.505-5.364-1.433c-2.511-1.393-4.716-3.779-6.291-6.848c-1.574-3.07-2.511-6.813-2.511-10.854
				c0-1.89,0.207-7.875,0.594-16.406c1.17-25.606,3.951-74.386,7.623-107.398c0.072-0.684,0.108-1.358,0.108-2.034
				c0-6.399-3.33-12.41-8.883-15.777C8.517,108.255,3.025,99.253,2.997,88.954L7.29,18.755c0.117-1.89,1.674-3.357,3.563-3.357
				c0.999,0,1.882,0.405,2.529,1.053c0.648,0.657,1.044,1.539,1.044,2.52l-0.009,0.18L11.628,75.5v0.036
				c0,3.987,3.24,7.227,7.228,7.227c3.983,0,7.216-3.22,7.234-7.191h0.001l1.396-56.286c0.054-2.16,1.817-3.888,3.986-3.888
				c2.16,0,3.925,1.728,3.979,3.888l1.395,56.286C36.866,79.543,40.098,82.763,44.073,82.763"/>
		</g>
</svg>
